<?xml version="1.0" encoding="UTF-8" standalone="no"?>
<svg
   xmlns:dc="http://purl.org/dc/elements/1.1/"
   xmlns:cc="http://creativecommons.org/ns#"
   xmlns:rdf="http://www.w3.org/1999/02/22-rdf-syntax-ns#"
   xmlns:svg="http://www.w3.org/2000/svg"
   xmlns="http://www.w3.org/2000/svg"
   xmlns:sodipodi="http://sodipodi.sourceforge.net/DTD/sodipodi-0.dtd"
   xmlns:inkscape="http://www.inkscape.org/namespaces/inkscape"
   id="Layer_1"
   data-name="Layer 1"
   viewBox="0 0 315.00001 175.00001"
   version="1.1"
   sodipodi:docname="abagen_logo.svg"
   inkscape:version="1.0.1 (0767f8302a, 2020-10-17)"
   inkscape:export-filename="/home/rmarkello/Downloads/abagen_logo.png"
   inkscape:export-xdpi="300"
   inkscape:export-ydpi="300"
   width="315"
   height="175">
  <metadata
     id="metadata109">
    <rdf:RDF>
      <cc:Work
         rdf:about="">
        <dc:format>image/svg+xml</dc:format>
        <dc:type
           rdf:resource="http://purl.org/dc/dcmitype/StillImage" />
        <dc:title />
      </cc:Work>
    </rdf:RDF>
  </metadata>
  <sodipodi:namedview
     pagecolor="#ffffff"
     bordercolor="#666666"
     borderopacity="1"
     objecttolerance="10"
     gridtolerance="10"
     guidetolerance="10"
     inkscape:pageopacity="0"
     inkscape:pageshadow="2"
     inkscape:window-width="1244"
     inkscape:window-height="1376"
     id="namedview107"
     showgrid="false"
     inkscape:zoom="2"
     inkscape:cx="155.93796"
     inkscape:cy="78.563068"
     inkscape:window-x="1316"
     inkscape:window-y="27"
     inkscape:window-maximized="0"
     inkscape:current-layer="Layer_1"
     inkscape:document-rotation="0"
     inkscape:pagecheckerboard="true" />
  <defs
     id="defs4">
    <style
       id="style2">.cls-1{font-size:100px;font-family:MyriadPro-Regular, Myriad Pro;}.cls-1,.cls-5{fill:#231f20;}.cls-2{fill:#ddaed1;}.cls-2,.cls-3,.cls-4{stroke:#231f20;stroke-miterlimit:10;}.cls-2,.cls-3{stroke-width:4px;}.cls-3,.cls-4{fill:none;}.cls-4{stroke-width:2.5px;}</style>
  </defs>
  <text
     class="cls-1"
     id="text6"
     style="font-style:normal;font-variant:normal;font-weight:normal;font-stretch:normal;font-family:'Myriad Pro';-inkscape-font-specification:'Myriad Pro';word-spacing:0px;fill:#333333;fill-opacity:1"
     y="152.64999"
     inkscape:export-xdpi="300"
     inkscape:export-ydpi="300">abagen</text>
  <path
     style="fill:none;fill-opacity:1;stroke:none;stroke-width:1px;stroke-linecap:butt;stroke-linejoin:miter;stroke-opacity:1"
     d="m 102.22,46.919998 -7.239997,-4.589996 -7.830001,28.529999 4.36,-1.010003 z"
     id="path949"
     inkscape:export-xdpi="300"
     inkscape:export-ydpi="300" />
  <path
     style="fill:none;fill-opacity:1;stroke:none;stroke-width:1px;stroke-linecap:butt;stroke-linejoin:miter;stroke-opacity:1"
     d="m 105.7834,52.087563 -3.5634,-5.167565 -10.709998,22.93 7.766721,-7.026841 6.506677,-10.735594"
     id="path947"
     inkscape:export-xdpi="300"
     inkscape:export-ydpi="300" />
  <path
     style="fill:none;fill-opacity:1;stroke:none;stroke-width:1px;stroke-linecap:butt;stroke-linejoin:miter;stroke-opacity:1"
     d="M 123.66,11.71 105.7834,52.087563 115.51,69.290001 Z"
     id="path945"
     inkscape:export-xdpi="300"
     inkscape:export-ydpi="300" />
  <path
     style="fill:none;fill-opacity:1;stroke:none;stroke-width:1px;stroke-linecap:butt;stroke-linejoin:miter;stroke-opacity:1"
     d="M 129.98,7.6399999 123.66,11.71 l -8.15,57.580001 11.28,13.799995 3.19,-75.4499961"
     id="path943"
     inkscape:export-xdpi="300"
     inkscape:export-ydpi="300" />
  <path
     style="fill:none;fill-opacity:1;stroke:none;stroke-width:1px;stroke-linecap:butt;stroke-linejoin:miter;stroke-opacity:1"
     d="M 139.91661,20.354539 134.20975,9.7028902 129.98,7.6399999 126.79,83.089996 131.69167,82.583137 139.44,71.519997 Z"
     id="path941"
     inkscape:export-xdpi="300"
     inkscape:export-ydpi="300" />
  <path
     style="fill:none;fill-opacity:1;stroke:none;stroke-width:1px;stroke-linecap:butt;stroke-linejoin:miter;stroke-opacity:1"
     d="M 147.33,46.85 139.91661,20.354539 139.44,71.519997 147.33,46.85"
     id="path939"
     inkscape:export-xdpi="300"
     inkscape:export-ydpi="300" />
  <path
     style="fill:none;fill-opacity:1;stroke:none;stroke-width:1px;stroke-linecap:butt;stroke-linejoin:miter;stroke-opacity:1"
     d="m 295.20062,40.357024 5.09706,-14.286726 5.96233,-4.620297 -6.11395,34.929625 z"
     id="path937"
     inkscape:export-xdpi="300"
     inkscape:export-ydpi="300" />
  <path
     style="fill:none;fill-opacity:1;stroke:none;stroke-width:1px;stroke-linecap:butt;stroke-linejoin:miter;stroke-opacity:1"
     d="m 285.53076,17.950851 9.66986,22.406173 -6.99652,26.172992 z"
     id="path935"
     inkscape:export-xdpi="300"
     inkscape:export-ydpi="300" />
  <path
     style="fill:none;fill-opacity:1;stroke:none;stroke-width:1px;stroke-linecap:butt;stroke-linejoin:miter;stroke-opacity:1"
     d="m 276.32999,9.5200005 -3.90998,73.5699955 6.92295,3.305144 7.448,-11.231039 1.41314,-8.634085 -2.67334,-48.579165 -9.20077,-8.4308505"
     id="path101"
     inkscape:export-xdpi="300"
     inkscape:export-ydpi="300" />
  <path
     style="fill:none;fill-opacity:1;stroke:none;stroke-width:1px;stroke-linecap:butt;stroke-linejoin:miter;stroke-opacity:1"
     d="M 266.40234,23.839672 276.32999,9.5200005 272.20639,81.630892 259.97764,59.6713 265.02404,39.644039 Z"
     id="path99"
     inkscape:export-xdpi="300"
     inkscape:export-ydpi="300" />
  <path
     style="fill:none;fill-opacity:1;stroke:none;stroke-width:1px;stroke-linecap:butt;stroke-linejoin:miter;stroke-opacity:1"
     d="m 256.14,46.85 11.5461,-24.15224 -6.92609,38.272241 z"
     id="path97"
     inkscape:export-xdpi="300"
     inkscape:export-ydpi="300" />
  <path
     style="fill:none;fill-opacity:1;stroke:none;stroke-width:1px;stroke-linecap:butt;stroke-linejoin:miter;stroke-opacity:1"
     d="M 235.27,46.68 256.14,46.85 244.64999,69.290001 235.27,46.68"
     id="path71"
     inkscape:export-xdpi="300"
     inkscape:export-ydpi="300" />
  <path
     style="fill:none;fill-opacity:1;stroke:none;stroke-width:1px;stroke-linecap:butt;stroke-linejoin:miter;stroke-opacity:1"
     d="M 219.62,46.810001 235.27,46.68 244.64999,69.290001 230.48,83.089996 Z"
     id="path69"
     inkscape:export-xdpi="300"
     inkscape:export-ydpi="300" />
  <path
     style="fill:none;fill-opacity:1;stroke:none;stroke-width:1px;stroke-linecap:butt;stroke-linejoin:miter;stroke-opacity:1"
     d="M 147.33,46.81 164.78999,46.68 158.28,71.519997 151.07629,59.784831 147.33,46.85"
     id="path67"
     inkscape:export-xdpi="300"
     inkscape:export-ydpi="300" />
  <path
     style="fill:none;fill-opacity:1;stroke:none;stroke-width:1px;stroke-linecap:butt;stroke-linejoin:miter;stroke-opacity:1"
     d="M 176.92,46.25 171.49001,85.559998 163.33,76.92 158.28,71.519997 164.78999,46.68 176.92,46.25"
     id="path65"
     inkscape:export-xdpi="300"
     inkscape:export-ydpi="300" />
  <path
     style="fill:none;fill-opacity:1;stroke:none;stroke-width:1px;stroke-linecap:butt;stroke-linejoin:miter;stroke-opacity:1"
     d="M 207.50999,46.810001 H 219.62 L 230.48,83.089996 220.35946,85.03681 216.14,84.46 l -3.74001,2.22 z"
     id="path63"
     inkscape:export-xdpi="300"
     inkscape:export-ydpi="300" />
  <path
     style="fill:none;fill-opacity:1;stroke:none;stroke-width:1px;stroke-linecap:butt;stroke-linejoin:miter;stroke-opacity:1"
     d="m 193.50999,46.810001 h 14 L 212.39999,86.68 194.98,90.57 Z"
     id="path61"
     inkscape:export-xdpi="300"
     inkscape:export-ydpi="300" />
  <path
     style="fill:none;fill-opacity:1;stroke:none;stroke-width:1px;stroke-linecap:butt;stroke-linejoin:miter;stroke-opacity:1"
     d="M 176.92,46.25 171.49001,85.559998 175.68,86.34 180.06314,89.836021 185.62,90.42 194.98,90.57 193.50999,46.810001 176.92,46.25"
     id="path59"
     inkscape:export-xdpi="300"
     inkscape:export-ydpi="300" />
  <path
     class="cls-2"
     d="M 256.14,46.81 H 147.33 c -1.51,-7.09 -0.3,-9.85 1.13,-11.05 1.11,-0.93 2.79,-1.28 4.25,-3.33 0.83,-1.15 0.58,-1.42 1.46,-3.31 2.18,-4.67 3.69,-5.94 5.3,-6.53 0.8976,-0.32854 1.73032,-0.8126 2.46,-1.43 0,0 0.77,-0.8 1.41,-4.42 0,0 1.78,-4.43 8.15,-8.64 2.54,-1.68 2.88,-0.95 4.2,-0.78 0.33,-0.41 4.64,-5.3 8.28,-4.67 0.58281,0.10101 1.14417,0.30053 1.66,0.59 1.49232,-0.80017 3.15675,-1.22572 4.85,-1.24 1.56438,0.0336 3.10296,0.40542 4.51,1.09 6.83,2.92 10.31,0.46 17.42,3.89 1.30677,0.63371 2.55786,1.37633 3.74,2.22 1.94,-0.13 4.9,-0.95 8.25,-0.25 6.52,1.35 8.57,3.47 9.6,4.27 3.06,2.41 7.12,6.07 8.33,8.12 3.58,1 6.22,3.29 6.72,6.07 0.16196,0.96568 0.0759,1.95667 -0.25,2.88 0.70882,0.0779 1.40657,0.23552 2.08,0.47 0.70338,0.2542 1.37461,0.58982 2,1 1.42,1 2.34123,3.67202 2.05123,6.83202 4.76893,2.4035 3.44877,2.21798 3.26877,3.27798 -0.0278,0.19712 -0.10711,0.3834 -0.23,0.54"
     id="path8"
     style="fill:#ffbccc;fill-opacity:1;stroke:#333333;stroke-opacity:1"
     sodipodi:nodetypes="cccccccccccccccccccccccccc"
     inkscape:export-xdpi="300"
     inkscape:export-ydpi="300" />
  <path
     class="cls-3"
     d="M 302.14,63.32"
     id="path10"
     style="stroke:#333333;stroke-opacity:1"
     inkscape:export-xdpi="300"
     inkscape:export-ydpi="300" />
  <path
     class="cls-3"
     d="m 82.5,69.69 a 10.56,10.56 0 0 0 4.65,1.16 c 20.2,0.13 30.53,-64.43 42.83,-63.21 7.95,0.79 15.73,28.87 17.35,39.21 a 52,52 0 0 0 16,30.07 c 0,0 1.78,4.43 8.15,8.64 2.54,1.68 2.88,1 4.2,0.78 0.33,0.41 4.64,5.3 8.28,4.67 a 5.21,5.21 0 0 0 1.66,-0.59 10.45,10.45 0 0 0 4.85,1.24 10.84,10.84 0 0 0 4.51,-1.09 c 6.83,-2.92 10.31,-0.46 17.42,-3.89 a 25.87,25.87 0 0 0 3.74,-2.22 c 1.94,0.13 4.9,0.95 8.25,0.25 a 21.45,21.45 0 0 0 8.1,-3.1 c 0.24,-0.17 0.66,-0.51 1.5,-1.17 3.16,-2.52 5.46,-4.54 5.75,-4.8 2.62,-2.34 5.5,-6.75 10.41,-16.41 3.15,-6.21 4.65,-9.36 6,-12.38 10.59,-24.57 15.9,-36.85 20.23,-37.33 3.62,-0.4 11.7,4.53 26.64,56.38"
     id="path12"
     style="stroke:#333333;stroke-opacity:1"
     inkscape:export-xdpi="300"
     inkscape:export-ydpi="300" />
  <path
     class="cls-3"
     d="m 256.14,46.85 c 10,30.47 17,39.47 22,39.01 12.45,-1.2 13.68,-63.43 28.37,-64.46 2.4,-0.17 4.54,1.36 6.11,2.91"
     id="path14"
     style="stroke:#333333;stroke-opacity:1"
     inkscape:export-xdpi="300"
     inkscape:export-ydpi="300" />
  <path
     class="cls-3"
     d="m 147.33,46.85 c -2.68,11.25 -9.46,36.4 -18.87,36.51 -3.45,0 -6.61,-4.78 -12.95,-14.07 a 155.79,155.79 0 0 1 -10,-17 c -1.73,-3.23 -3.56,-6.85 -7.61,-8.74 a 13.44,13.44 0 0 0 -6.4,-1.17"
     id="path16"
     style="stroke:#333333;stroke-opacity:1"
     inkscape:export-xdpi="300"
     inkscape:export-ydpi="300" />
  <line
     class="cls-4"
     x1="123.66"
     y1="11.71"
     x2="115.51"
     y2="69.290001"
     id="line18"
     style="stroke:#333333;stroke-opacity:1"
     inkscape:export-xdpi="300"
     inkscape:export-ydpi="300" />
  <line
     class="cls-4"
     x1="139.44"
     y1="18.559999"
     x2="139.44"
     y2="71.519997"
     id="line20"
     style="stroke:#333333;stroke-opacity:1"
     inkscape:export-xdpi="300"
     inkscape:export-ydpi="300" />
  <line
     class="cls-4"
     x1="94.980003"
     y1="42.330002"
     x2="87.150002"
     y2="70.860001"
     id="line22"
     style="stroke:#333333;stroke-opacity:1"
     inkscape:export-xdpi="300"
     inkscape:export-ydpi="300" />
  <line
     class="cls-4"
     x1="91.510002"
     y1="69.849998"
     x2="102.22"
     y2="46.919998"
     id="line24"
     style="fill:#87cdde;stroke:#333333;stroke-opacity:1"
     inkscape:export-xdpi="300"
     inkscape:export-ydpi="300" />
  <line
     class="cls-4"
     x1="129.98"
     y1="7.6399999"
     x2="126.79"
     y2="83.089996"
     id="line26"
     style="stroke:#333333;stroke-opacity:1"
     inkscape:export-xdpi="300"
     inkscape:export-ydpi="300" />
  <line
     class="cls-4"
     x1="269.73001"
     y1="16.92"
     x2="260.76001"
     y2="60.970001"
     id="line28"
     style="fill:#87cdde;stroke:#333333;stroke-opacity:1"
     inkscape:export-xdpi="300"
     inkscape:export-ydpi="300" />
  <line
     class="cls-4"
     x1="276.32999"
     y1="9.5200005"
     x2="272.42001"
     y2="83.089996"
     id="line30"
     style="stroke:#333333;stroke-opacity:1"
     inkscape:export-xdpi="300"
     inkscape:export-ydpi="300" />
  <line
     class="cls-4"
     x1="285.45001"
     y1="17.663406"
     x2="287.70999"
     y2="71.519997"
     id="line32"
     style="stroke:#333333;stroke-opacity:1"
     inkscape:export-xdpi="300"
     inkscape:export-ydpi="300" />
  <line
     class="cls-4"
     x1="306.26001"
     y1="21.450001"
     x2="299.79001"
     y2="58.32"
     id="line34"
     style="stroke:#333333;stroke-opacity:1"
     inkscape:export-xdpi="300"
     inkscape:export-ydpi="300" />
  <line
     class="cls-4"
     x1="158.28"
     y1="71.519997"
     x2="164.78999"
     y2="46.68"
     id="line36"
     style="stroke:#333333;stroke-opacity:1"
     inkscape:export-xdpi="300"
     inkscape:export-ydpi="300" />
  <line
     class="cls-4"
     x1="171.49001"
     y1="85.559998"
     x2="176.92"
     y2="46.25"
     id="line38"
     style="stroke:#333333;stroke-opacity:1"
     inkscape:export-xdpi="300"
     inkscape:export-ydpi="300" />
  <line
     class="cls-4"
     x1="194.98"
     y1="90.57"
     x2="193.50999"
     y2="46.810001"
     id="line40"
     style="stroke:#333333;stroke-opacity:1"
     inkscape:export-xdpi="300"
     inkscape:export-ydpi="300" />
  <line
     class="cls-4"
     x1="212.39999"
     y1="86.68"
     x2="207.50999"
     y2="46.810001"
     id="line42"
     style="stroke:#333333;stroke-opacity:1"
     inkscape:export-xdpi="300"
     inkscape:export-ydpi="300" />
  <line
     class="cls-4"
     x1="230.48"
     y1="83.089996"
     x2="219.62"
     y2="46.810001"
     id="line44"
     style="stroke:#333333;stroke-opacity:1"
     inkscape:export-xdpi="300"
     inkscape:export-ydpi="300" />
  <line
     class="cls-4"
     x1="244.64999"
     y1="69.290001"
     x2="235.27"
     y2="46.68"
     id="line46"
     style="stroke:#333333;stroke-opacity:1"
     inkscape:export-xdpi="300"
     inkscape:export-ydpi="300" />
  <path
     class="cls-5"
     d="m 162.4,18.57 c 0.004,0.674885 -0.26225,1.3233 -0.74,1.8 -0.61599,0.658564 -1.16223,1.379062 -1.63,2.15 -1,1.9 -0.39668,4.545305 -0.0867,6.595305 0,0 0.37367,0.381481 0.90668,0.234695 0.53322,-0.146013 0.84679,-0.696991 0.7,-1.23 -0.27,-1.76 -0.51,-3.66 0.58,-5.19 1,-1.35 2.43,-2.52 2.27,-4.36 0,-0.552285 -0.44772,-1 -1,-1 -0.55228,0 -1,0.447715 -1,1 z"
     id="path48"
     style="fill:#333333;fill-opacity:1"
     sodipodi:nodetypes="ccccccccsc"
     inkscape:export-xdpi="300"
     inkscape:export-ydpi="300" />
  <path
     class="cls-5"
     d="m 160.14,29.52 a 7.45,7.45 0 0 0 3.5,2.29 21.15,21.15 0 0 0 4.71,0.19 c 2.75,0 6.12,-0.46 8.49,1.24 1,0.76 2,-1 1,-1.72 -2.28,-1.65 -5.22,-1.52 -7.9,-1.52 -1.58,0 -3.17,0 -4.75,0 a 5,5 0 0 1 -3.64,-1.88 1,1 0 0 0 -1.41,1.4 z"
     id="path50"
     style="fill:#333333;fill-opacity:1"
     inkscape:export-xdpi="300"
     inkscape:export-ydpi="300" />
  <path
     class="cls-5"
     d="m 178.22829,39.941208 c 0.12,-0.12 0.24,-0.24 0.37,-0.35 l 0.09,-0.08 c 0.1,-0.08 -0.17,0.12 -0.06,0 l 0.2,-0.13 a 3.91,3.91 0 0 1 0.44,-0.26 l 0.21,-0.1 c 0.13,-0.06 0,0 -0.07,0 a 0.42,0.42 0 0 0 0.14,-0.06 7.77,7.77 0 0 1 0.95,-0.24 c 0,0 -0.22,0 -0.09,0 h 0.36 a 3.25,3.25 0 0 1 0.54,0 1,1 0 0 0 0,-2 5.62,5.62 0 0 0 -4.5,1.7 1.0040916,1.0040916 0 0 0 1.42,1.42 z"
     id="path52"
     style="fill:#333333;fill-opacity:1"
     inkscape:export-xdpi="300"
     inkscape:export-ydpi="300" />
  <path
     class="cls-5"
     d="m 182.14,36.89 c -1.19659,-0.71406 -2.1645,-1.75483 -2.79,-3 -0.57129,-1.17503 -0.49345,-2.74041 0.17766,-3.86142 0.86872,-1.19452 -1.12937,-2.16451 -1.73766,-0.81858 -0.98541,1.66396 -1.08644,3.70694 -0.27,5.46 0.78602,1.64803 2.04662,3.02355 3.62,3.95 1.13268,0.59252 2.07877,-1.04423 1,-1.73 z"
     id="path54"
     style="fill:#333333;fill-opacity:1"
     sodipodi:nodetypes="ccccccc"
     inkscape:export-xdpi="300"
     inkscape:export-ydpi="300" />
  <path
     class="cls-5"
     d="m 179.65002,29.82679 c 0.72,-0.75 1.76998,-1.41679 2.47998,-2.18679 0.76106,-0.81808 1.20136,-1.88332 1.24,-3 0.0392,-2.17122 -1.45181,-4.07147 -3.57,-4.55 -1.28667,-0.35333 -1.81667,1.57667 -0.53,1.93 0.63726,0.1275 1.20614,0.48305 1.6,1 0.4106,0.53088 0.5875,1.20598 0.49,1.87 -0.1177,0.6603 -0.47351,1.25449 -1,1.67 -0.67,0.57 -1.64159,1.57988 -2.27159,2.19988 -0.89,0.92 0.44511,2.20191 1.34511,1.27191 z"
     id="path56"
     style="fill:#333333;fill-opacity:1"
     sodipodi:nodetypes="ccccccccccc"
     inkscape:export-xdpi="300"
     inkscape:export-ydpi="300" />
  <path
     class="cls-5"
     d="m 183.45,24.32 c 2,-0.53 3,-2.24 4.16,-3.75 a 4.72,4.72 0 0 1 2.24,-1.78 5.39,5.39 0 0 1 6.74,4.73 8.23,8.23 0 0 1 -1.11,3.07 5.44,5.44 0 0 0 -0.57,3.45 c 0.25,1.26 2.18,0.73 1.93,-0.53 a 4.31,4.31 0 0 1 0.71,-2.62 9.08,9.08 0 0 0 1,-2.74 6.37,6.37 0 0 0 -1.82,-5.13 c -2.68,-2.86 -7.46,-3.38 -10.15,-0.3 -1.08,1.23 -1.94,3.22 -3.64,3.67 a 1.0007247,1.0007247 0 0 0 0.53,1.93 z"
     id="path58"
     style="fill:#333333;fill-opacity:1"
     inkscape:export-xdpi="300"
     inkscape:export-ydpi="300" />
  <path
     class="cls-5"
     d="m 194.37,18.57 a 4.19,4.19 0 0 0 2.54,-2 c 0.52,-0.77 1,-2 2,-2.19 a 6.21,6.21 0 0 1 2.35,0.09 16.13,16.13 0 0 1 2.37,0.6 13.83,13.83 0 0 1 2.22,1 c 0.54,0.31 1.31,0.68 1.54,1.3 0.43,1.2 2.36,0.69 1.93,-0.53 -0.6,-1.67 -2.36,-2.53 -3.89,-3.2 a 15.7,15.7 0 0 0 -5.61,-1.31 4.18,4.18 0 0 0 -3.82,1.94 c -0.59,0.83 -1.09,2.16 -2.19,2.37 -1.27,0.24 -0.73,2.16 0.53,1.93 z"
     id="path60"
     style="fill:#333333;fill-opacity:1"
     inkscape:export-xdpi="300"
     inkscape:export-ydpi="300" />
  <path
     class="cls-5"
     d="m 205.53,14.14 a 7.52,7.52 0 0 0 1.79,-9.38 1,1 0 0 0 -1.73,1 5.53,5.53 0 0 1 -1.47,7 1,1 0 0 0 0,1.41 1,1 0 0 0 1.41,0 z"
     id="path62"
     style="fill:#333333;fill-opacity:1"
     inkscape:export-xdpi="300"
     inkscape:export-ydpi="300" />
  <path
     class="cls-5"
     d="m 169.14,8.95 a 3.81,3.81 0 0 0 -0.45,4.37 c 0.39,0.85 1,1.59 1.41,2.43 a 4.84,4.84 0 0 1 0.46,3.13 7.69,7.69 0 0 0 -0.3,2.61 5.45,5.45 0 0 0 0.74,2 c 0.77,1.31 2,2.42 2.3,3.94 0.29,1.25 2.22,0.72 1.93,-0.53 a 10.49,10.49 0 0 0 -1.93,-3.55 7.12,7.12 0 0 1 -0.94,-1.62 4.06,4.06 0 0 1 0.13,-2.31 7.12,7.12 0 0 0 -0.8,-4.93 c -0.58,-1 -2.29,-2.94 -1.13,-4.12 a 1.0005623,1.0005623 0 0 0 -1.42,-1.41 z"
     id="path64"
     style="fill:#333333;fill-opacity:1"
     inkscape:export-xdpi="300"
     inkscape:export-ydpi="300" />
  <path
     class="cls-5"
     d="m 199.68,3.59 c -0.06,-1.66 -2,-1.69 -3.14,-1.22 a 8.91,8.91 0 0 0 -3,2.41 8.83,8.83 0 0 1 -3,2.33 7.23,7.23 0 0 1 -4,0.48 1,1 0 0 0 -1.23,0.7 1,1 0 0 0 0.7,1.23 9.37,9.37 0 0 0 7.22,-1.71 24.13,24.13 0 0 0 2.45,-2.4 6.26,6.26 0 0 1 1.19,-1 2.32,2.32 0 0 1 0.67,-0.28 1.41,1.41 0 0 0 0.22,-0.06 c 0.3,-0.14 0.21,0.18 0.05,-0.13 l -0.13,-0.5 v 0.14 c 0,1.28 2,1.29 2,0 z"
     id="path66"
     style="fill:#333333;fill-opacity:1"
     inkscape:export-xdpi="300"
     inkscape:export-ydpi="300" />
  <path
     class="cls-5"
     d="m 189.05879,8.0444281 a 6.13,6.13 0 0 0 -2.15,3.5499999 1.09,1.09 0 0 0 0.1,0.77 1.07,1.07 0 0 0 0.6,0.46 1,1 0 0 0 1.23,-0.7 5.31,5.31 0 0 1 0.31,-1 l -0.1,0.24 a 5.36,5.36 0 0 1 0.69,-1.18 l -0.16,0.2 a 5.89,5.89 0 0 1 0.9,-0.8999999 1,1 0 0 0 0.29,-0.7 1,1 0 0 0 -0.29,-0.71 1,1 0 0 0 -0.71,-0.29 1.18,1.18 0 0 0 -0.71,0.29 z"
     id="path68"
     style="fill:#333333;fill-opacity:1"
     inkscape:export-xdpi="300"
     inkscape:export-ydpi="300" />
  <path
     class="cls-5"
     d="m 175.42,7.88 a 3.22,3.22 0 0 1 0.44,-0.14 l 0.21,-0.05 c 0,0 0.3,0 0.06,0 h 0.85 c -0.24,0 0,0 0.06,0 h 0.21 l 0.44,0.14 c 0.18,0.06 -0.07,0 0,0 l 0.19,0.09 0.4,0.25 c 0,0 0.17,0.15 0,0 l 0.15,0.13 c 0.11,0.1 0.21,0.21 0.31,0.32 0.1,0.11 0.16,0.2 0.08,0.09 -0.08,-0.11 0,0.07 0.06,0.09 0.06,0.02 0.16,0.25 0.23,0.38 l 0.09,0.18 c 0.11,0.24 -0.07,-0.19 0,0.06 0.07,0.25 0.09,0.26 0.12,0.39 a 1.69,1.69 0 0 1 0.08,0.39 c 0,-0.25 0,0 0,0.06 a 1.93,1.93 0 0 1 0,0.24 1,1 0 0 0 1,1 1,1 0 0 0 1,-1 5,5 0 0 0 -2.1,-4 4.89,4.89 0 0 0 -4.49,-0.6 1.0007247,1.0007247 0 1 0 0.53,1.93 z"
     id="path70"
     style="fill:#333333;fill-opacity:1"
     inkscape:export-xdpi="300"
     inkscape:export-ydpi="300" />
  <path
     class="cls-5"
     d="m 199.17784,23.69 c 2.17009,-0.67 4.4016,0.11 6.59216,0.32 a 6.8992532,6.74 0 0 0 5.38429,-1.4 10.113445,9.88 0 0 0 2.34411,-4 c 0.50157,-1.32 0.97244,-2.9 2.15985,-3.79 a 1.0236281,1 0 0 0 0.36851,-1.37 1.0236281,1 0 0 0 -1.40237,-0.36 8.4449316,8.25 0 0 0 -2.62049,3.74 13.798506,13.48 0 0 1 -1.89371,3.95 c -1.19765,1.39 -3.1323,1.4 -4.84176,1.17 -2.23151,-0.3 -4.42208,-0.87 -6.63311,-0.19 -1.25907,0.39 -0.71654,2.32 0.54252,1.93 z"
     id="path72"
     style="fill:#333333;fill-opacity:1;stroke-width:1.01175"
     inkscape:export-xdpi="300"
     inkscape:export-ydpi="300" />
  <path
     class="cls-5"
     d="m 194.88,29.3 a 5.19,5.19 0 0 0 1.18,2.88 4.9,4.9 0 0 0 2.44,1.57 1,1 0 1 0 0.53,-1.92 l -0.26,-0.09 -0.15,-0.05 c -0.11,0 0.23,0.1 0.08,0 a 4.45,4.45 0 0 1 -0.48,-0.26 l -0.23,-0.16 c -0.09,-0.07 0.19,0.15 0.07,0.05 l -0.12,-0.1 a 4.68,4.68 0 0 1 -0.38,-0.39 l -0.09,-0.1 c -0.1,-0.12 0,0 0,0.07 a 1.38,1.38 0 0 1 -0.17,-0.25 3.77,3.77 0 0 1 -0.26,-0.48 c 0,0 -0.08,-0.19 0,0 0.08,0.19 0,0 0,0 l -0.09,-0.26 a 3.82,3.82 0 0 1 -0.11,-0.57 v 0.27 c 0,-0.07 0,-0.13 0,-0.2 a 1,1 0 0 0 -2,0 z"
     id="path74"
     style="fill:#333333;fill-opacity:1"
     inkscape:export-xdpi="300"
     inkscape:export-ydpi="300" />
  <path
     class="cls-5"
     d="m 196.16431,30.659232 c -1.74817,0.240117 -2.62703,2.08422 -2.77032,3.668995 -0.0573,0.758771 0.25793,1.92094 -0.28658,2.55485 -0.54451,0.63391 -1.58577,0.662724 -2.29268,0.835609 a 7.5753842,7.6165266 0 0 0 -5.65527,7.789411 c 0.086,1.229402 1.99654,1.239006 1.91057,0 a 5.6743735,5.7051914 0 0 1 3.02824,-5.493888 9.6578984,9.7103511 0 0 1 2.1876,-0.672329 c 1.72906,-0.432211 2.86584,-1.440705 3.00913,-3.313621 0.0669,-1.162169 -0.25792,-3.284807 1.37561,-3.51532 a 0.95528174,0.96046994 0 0 0 0.6687,-1.181378 0.95528174,0.96046994 0 0 0 -1.175,-0.672329 z"
     id="path76"
     style="fill:#333333;fill-opacity:1;stroke-width:0.957872"
     inkscape:export-xdpi="300"
     inkscape:export-ydpi="300" />
  <path
     class="cls-5"
     d="m 202.22294,38.907834 10.7,-0.29 a 1,1 0 0 0 0,-2 l -10.7,0.29 c -1.28,0 -1.29,2 0,2 z"
     id="path78"
     style="fill:#333333;fill-opacity:1"
     inkscape:export-xdpi="300"
     inkscape:export-ydpi="300" />
  <path
     class="cls-5"
     d="m 212.89211,38.314478 2.72,3.16 a 1,1 0 0 0 1.42,0 1,1 0 0 0 0,-1.41 l -2.72,-3.16 a 1,1 0 0 0 -1.42,0 1,1 0 0 0 0,1.41 z"
     id="path80"
     style="fill:#333333;fill-opacity:1"
     inkscape:export-xdpi="300"
     inkscape:export-ydpi="300" />
  <path
     class="cls-5"
     d="m 213.97,38.47 a 19.53,19.53 0 0 0 4.1,-4.87 c 1.12,-2.14 1.07,-4.56 1.58,-6.87 a 13.85,13.85 0 0 0 0,-6.71 c -0.45,-1.87 -1.16,-4.73 0.86,-6 1.09,-0.68 0.09,-2.41 -1,-1.73 a 5.28,5.28 0 0 0 -2.34,4.55 c -0.08,2.38 1.15,4.6 1,7 a 36.33,36.33 0 0 1 -0.73,3.88 28.81,28.81 0 0 1 -0.59,3.72 c -0.7,2.29 -2.58,4 -4.26,5.62 -0.94,0.89 0.48,2.3 1.41,1.41 z"
     id="path82"
     style="fill:#333333;fill-opacity:1"
     inkscape:export-xdpi="300"
     inkscape:export-ydpi="300" />
  <path
     class="cls-5"
     d="m 218.51548,33.263174 c 0.78,-0.62 2.6,0.09 3.56,-0.09 a 5.36,5.36 0 0 0 2.73,-1.86 c 1.4,-1.35 2.85,-0.4 4.12,0.66 a 10.52,10.52 0 0 0 3.33,2.09 c 2.85,1 6,0.12 8.79,1.45 2.33,1.13 4.26,2.82 7,2.38 1.26,-0.2 0.73,-2.13 -0.54,-1.93 -1.45,0.24 -2.77,-0.65 -4,-1.35 a 12.8,12.8 0 0 0 -3.86,-1.65 45.27,45.27 0 0 0 -4.66,-0.39 7.67,7.67 0 0 1 -4.54,-1.89 c -2,-1.68 -4.57,-3.11 -6.86,-1 a 14,14 0 0 1 -1.22,1.22 2.72,2.72 0 0 1 -2,0.3 4.06,4.06 0 0 0 -3.32,0.66 c -1,0.8 0.42,2.21 1.42,1.42 z"
     id="path84"
     style="fill:#333333;fill-opacity:1"
     inkscape:export-xdpi="300"
     inkscape:export-ydpi="300" />
  <path
     class="cls-5"
     d="m 230.55,26.89 a 9.07,9.07 0 0 0 7.21,-3.21 1,1 0 0 0 0,-1.42 1,1 0 0 0 -1.41,0 c -0.19,0.23 -0.38,0.44 -0.58,0.64 l -0.34,0.31 -0.15,0.13 c -0.25,0.21 0.07,0 -0.08,0.06 a 8,8 0 0 1 -1.52,0.9 v 0 l -0.19,0.08 -0.43,0.15 a 7.79,7.79 0 0 1 -0.83,0.22 l -0.45,0.08 c -0.16,0 0.14,0 0,0 h -0.25 c -0.3,0 -0.61,0 -0.91,0 a 1,1 0 0 0 -1,1 1,1 0 0 0 1,1 z"
     id="path86"
     style="fill:#333333;fill-opacity:1"
     inkscape:export-xdpi="300"
     inkscape:export-ydpi="300" />
  <path
     class="cls-5"
     d="m 233.95777,24.813598 a 3.19,3.19 0 0 0 1.14,3.14 7.5,7.5 0 0 0 3.45,1.34 c 2.33,0.52 4,2.06 5.64,3.68 0.92,0.9 2.33,-0.51 1.41,-1.41 a 15.83,15.83 0 0 0 -5.22,-3.82 c -1,-0.39 -2.12,-0.47 -3.15,-0.83 -0.61,-0.22 -1.51,-0.82 -1.34,-1.57 0.29,-1.25 -1.64,-1.79 -1.93,-0.53 z"
     id="path88"
     style="fill:#333333;fill-opacity:1"
     inkscape:export-xdpi="300"
     inkscape:export-ydpi="300" />
  <path
     class="cls-5"
     d="m 242.48689,30.231429 c 1.52168,-0.19823 3.05954,-0.241785 4.59,-0.13 0.55228,0 1,-0.447715 1,-1 0,-0.552285 -0.44772,-1 -1,-1 -1.53046,-0.111785 -3.06832,-0.06823 -4.59,0.13 -0.2649,0.01198 -0.75911,0.221721 -0.95234,0.403318 -0.18475,0.186261 -0.0466,0.334342 -0.0477,0.596682 0,0.49 0.44,1.08 1,1 z"
     id="path90"
     style="fill:#333333;fill-opacity:1"
     sodipodi:nodetypes="ccsccccc"
     inkscape:export-xdpi="300"
     inkscape:export-ydpi="300" />
  <path
     class="cls-5"
     d="m 218.74,17.82 0.23,0.09 c 0.16,0.06 -0.12,0 0,0 l 0.41,0.19 c 0.29,0.13 0.57,0.28 0.85,0.43 a 15.8,15.8 0 0 1 1.56,1 l 0.16,0.12 0.14,0.1 0.1,0.08 0.19,0.15 c 0.23,0.2 0.46,0.39 0.68,0.6 a 15.47,15.47 0 0 1 1.3,1.38 1,1 0 0 0 1.41,0 1,1 0 0 0 0,-1.41 16,16 0 0 0 -6.54,-4.66 1,1 0 0 0 -1.23,0.7 1,1 0 0 0 0.7,1.23 z"
     id="path92"
     style="fill:#333333;fill-opacity:1"
     inkscape:export-xdpi="300"
     inkscape:export-ydpi="300" />
  <path
     class="cls-5"
     d="m 224.6,19.13 c 0.22672,-0.28865 0.45241,-0.57904 0.7,-0.85 l 0.14,-0.1 0.56,-0.36 c 0.80534,-0.40627 1.55766,-0.91005 2.24,-1.5 0.43416,-0.42555 0.75106,-0.95601 0.92,-1.54 0.35333,-1.28667 -1.12783,-2.59239 -1.48116,-1.30571 -0.0392,0.0742 -0.30547,0.79699 -0.45524,1.05238 -0.4537,0.49464 0.046,-0.0261 -0.4537,0.49464 -0.95566,0.70644 -2.26176,1.34838 -3.1499,2.06869 -0.46224,0.41305 -0.8072,0.94084 -1,1.53 -0.35333,1.28667 1.52239,1.95023 1.87572,0.66356 z"
     id="path94"
     style="fill:#333333;fill-opacity:1"
     sodipodi:nodetypes="ccccccccccccc"
     inkscape:export-xdpi="300"
     inkscape:export-ydpi="300" />
  <path
     class="cls-5"
     d="m 229.36884,14.614285 c 0.45986,-0.879321 0.42185,-1.935992 -0.1,-2.78 -0.20367,-0.315846 -0.46486,-0.590613 -0.77,-0.81 -0.23272,-0.135687 -0.51034,-0.171741 -0.77,-0.1 -0.25249,0.06891 -0.57393,0.327407 -0.70603,0.55335 -0.13569,0.23272 -0.0657,0.416991 0.006,0.67665 l 0.1,0.24 c 0.0869,0.149049 0.21095,0.273068 0.36,0.36 v 0 l -0.2,-0.16 c 0.10973,0.08977 0.21023,0.190265 0.3,0.3 l -0.16,-0.2 c 0.0956,0.12152 0.17306,0.256254 0.23,0.4 l -0.1,-0.24 c 0.0584,0.152096 0.10196,0.309499 0.13,0.47 0.005,-0.516844 0,0.631055 0,-0.05 -0.0213,0.150092 -0.0581,0.297557 -0.11,0.44 l 0.1,-0.24 -0.06,0.11 c -0.12672,0.23569 -0.16231,0.50976 -0.1,0.77 0.23266,0.857273 1.05616,1.602584 1.50201,0.834296 z"
     id="path96"
     style="fill:#333333;fill-opacity:1"
     sodipodi:nodetypes="cccccccscccccccccccccc"
     inkscape:export-xdpi="300"
     inkscape:export-ydpi="300" />
  <path
     class="cls-5"
     d="m 233.91,15.23 a 8.48,8.48 0 0 0 0.14,3.72 5.13,5.13 0 0 0 2.15,2.64 1,1 0 0 0 1.37,-0.35 1,1 0 0 0 -0.36,-1.37 3.1,3.1 0 0 1 -1.28,-1.61 c 0,-0.09 -0.06,-0.19 -0.08,-0.28 -0.02,-0.09 -0.07,-0.35 0,-0.19 a 6,6 0 0 1 0,-0.85 c 0,-0.57 0.08,-1.14 0.13,-1.71 a 1,1 0 0 0 -1,-1 1,1 0 0 0 -1,1 z"
     id="path98"
     style="fill:#333333;fill-opacity:1"
     inkscape:export-xdpi="300"
     inkscape:export-ydpi="300" />
  <path
     class="cls-5"
     d="m 231.98,43.76 c 0,0 -0.75614,-0.1625 -1.17,-0.35 l -0.27,-0.13 -0.49,-0.27 c -0.17266,-0.10065 -0.33958,-0.21082 -0.5,-0.33 l -0.2,-0.14 v 0 l -0.12,-0.1 c -0.28336,-0.23157 -0.55065,-0.48215 -0.8,-0.75 l -0.36,-0.42 c -0.14,-0.16 0,0.05 -0.09,-0.11 l -0.17,-0.25 c -0.2046,-0.30387 -0.38836,-0.62126 -0.55,-0.95 l -0.12,-0.27 -0.05,-0.13 c -0.07,-0.19 -0.13,-0.38 -0.19,-0.57 -0.35333,-1.28667 -2.28333,-0.75667 -1.93,0.53 1.08236,3.59175 4.25995,6.14971 8,6.44 1.33333,0 1.25574,-1.65184 0,-2 z"
     id="path100"
     style="fill:#333333;fill-opacity:1"
     sodipodi:nodetypes="cccccccccccccccccccc"
     inkscape:export-xdpi="300"
     inkscape:export-ydpi="300" />
  <path
     class="cls-5"
     d="m 229.07281,41.191911 c 0,0 0.21804,-0.284594 0.43818,-0.573096 l -0.15,0.2 c 0.2298,-0.294854 0.49515,-0.560196 0.79,-0.79 l -0.2,0.16 c 0.30457,-0.236527 0.64129,-0.428455 1,-0.57 l -0.24,0.1 0.26,-0.1 c 0.53322,-0.146013 0.84679,-0.696991 0.7,-1.23 -0.0689,-0.25249 -0.23406,-0.467903 -0.46,-0.6 -0.23272,-0.135687 -0.51034,-0.171741 -0.77,-0.1 -0.74401,0.254097 -1.42567,0.663095 -2,1.2 -0.27356,0.269621 -0.52131,0.564237 -0.74,0.88 -0.21853,0.330405 -0.40282,0.682223 -0.55,1.05 -0.0717,0.259659 -0.0357,0.53728 0.1,0.77 0.1321,0.225943 0.34751,0.391092 0.6,0.46 0.25966,0.07174 0.53728,0.03569 0.77,-0.1 -0.005,0.0058 0.45182,-0.756904 0.45182,-0.756904 z"
     id="path102"
     style="fill:#333333;fill-opacity:1"
     sodipodi:nodetypes="cccccccccccccccccc"
     inkscape:export-xdpi="300"
     inkscape:export-ydpi="300" />
  <path
     class="cls-5"
     d="m 159,46.32 a 5.33,5.33 0 0 1 2.7,-5.82 5.62,5.62 0 0 1 2.09,-0.64 1,1 0 0 0 1,-1 1,1 0 0 0 -1,-1 7.4,7.4 0 0 0 -6.72,9 1.0020604,1.0020604 0 0 0 1.93,-0.54 z"
     id="path104"
     style="fill:#333333;fill-opacity:1"
     inkscape:export-xdpi="300"
     inkscape:export-ydpi="300" />
</svg>
